<?xml version="1.0" encoding="UTF-8"?>
<svg id="Layer_2" data-name="Layer 2" xmlns="http://www.w3.org/2000/svg" xmlns:xlink="http://www.w3.org/1999/xlink" viewBox="0 0 821.59 821.71">
  <defs>
    <style>
      .cls-1 {
        fill: #7539da;
        font-family: IgnogitoRegular, IgnogitoRegular;
        font-size: 298.98px;
        letter-spacing: .2em;
      }

      .cls-2 {
        fill: url(#linear-gradient-2);
      }

      .cls-3 {
        fill: url(#linear-gradient-4);
      }

      .cls-4 {
        fill: url(#linear-gradient-3);
      }

      .cls-5 {
        fill: url(#linear-gradient-5);
      }

      .cls-6 {
        fill: url(#linear-gradient-6);
      }

      .cls-7 {
        fill: url(#linear-gradient);
      }
    </style>
    <linearGradient id="linear-gradient" x1="598.62" y1="349.06" x2="410.89" y2="338.9" gradientTransform="translate(-45.88 -.81) rotate(3.28)" gradientUnits="userSpaceOnUse">
      <stop offset="0" stop-color="#fff" stop-opacity="0"/>
      <stop offset="1" stop-color="#7539da"/>
    </linearGradient>
    <linearGradient id="linear-gradient-2" x1="365.44" y1="334" x2="304.88" y2="178.04" xlink:href="#linear-gradient"/>
    <linearGradient id="linear-gradient-3" x1="421.22" y1="55.45" x2="558.45" y2="30.71" xlink:href="#linear-gradient"/>
    <linearGradient id="linear-gradient-4" x1="351.39" y1="183.31" x2="376.71" y2="43.72" xlink:href="#linear-gradient"/>
    <linearGradient id="linear-gradient-5" x1="524.83" y1="129.77" x2="719.78" y2="129.77" xlink:href="#linear-gradient"/>
    <linearGradient id="linear-gradient-6" x1="613.8" y1="188.37" x2="553.07" y2="412.26" xlink:href="#linear-gradient"/>
  </defs>
  <g id="Layer_1-2" data-name="Layer 1">
    <text class="cls-1" transform="translate(0 746.96)"><tspan x="0" y="0">SIMA</tspan></text>
    <g>
      <path class="cls-7" d="M477.07,375.44c-3.02-4.27-6.93-8.26-11.72-11.97-12.93-10.02-28.55-15.05-46.87-15.07-18.32-.04-33.96,4.93-46.94,14.91-4.8,3.69-8.71,7.64-11.75,11.9v.03c-3.17,4.45-23.82,36.82-36.69,44.21l-10.83,6.23c-10.01,5.76-22.58-.99-23.32-12.51-.49-7.62-.73-13.93-.73-13.93.03-14.84,17.85-48.84,20.13-53.77l.02-.03c5.12-6.04,11.21-11.76,18.29-17.18,11.61-8.88,24.25-15.74,37.95-20.56,16.48-5.84,34.46-8.73,53.96-8.69,19.49.04,37.47,3,53.93,8.87h0c-2.66,14.3-3.06,28.67-1.16,43.16,1.16,8.82,3.06,16.97,5.74,24.42Z"/>
      <path class="cls-2" d="M364.61,307.68c-13.71,4.83-26.35,11.68-37.95,20.56-7.07,5.42-13.17,11.14-18.29,17.18,2.2-4.75,3.71-10.13,4.52-16.14,2.21-16.22-1.27-32.26-10.39-48.14-9.14-15.87-21.25-26.94-36.37-33.19-5.65-2.33-11.08-3.73-16.33-4.2-5.38-.52-43.68-2.23-56.53-9.67l-10.8-6.26c-5.23-3.03-7.84-8.39-7.76-13.72.07-4.85,2.37-9.68,6.94-12.73,6.35-4.23,11.7-7.6,11.7-7.6,12.87-7.41,51.26-8.96,56.7-9.47,7.78,1.43,15.78,3.85,23.98,7.26,13.49,5.6,25.75,13.14,36.79,22.58,13.28,11.36,24.77,25.49,34.49,42.39,9.73,16.91,16.16,33.96,19.3,51.15Z"/>
      <path class="cls-4" d="M529.11,83.16h-.01c-5.12,6.07-11.23,11.82-18.32,17.24-11.61,8.9-24.25,15.75-37.94,20.58-16.48,5.82-34.46,8.71-53.97,8.68-19.49-.04-37.47-2.98-53.93-8.86,2.67-14.29,3.05-28.67,1.16-43.16-1.16-8.83-3.06-16.99-5.75-24.44,3.02,4.28,6.93,8.28,11.73,12,12.93,10.01,28.55,15.04,46.87,15.06,18.31.04,33.96-4.93,46.94-14.89,4.8-3.7,8.72-7.67,11.75-11.95h0c3.17-4.45,23.83-36.82,36.69-44.21l10.83-6.23c10.01-5.75,22.58,1,23.32,12.52.49,7.62.73,13.93.73,13.93-.03,14.85-17.83,48.83-20.1,53.74Z"/>
      <path class="cls-3" d="M364.93,120.8c-3.19,17.17-9.67,34.21-19.46,51.07-9.78,16.88-21.33,30.97-34.65,42.27-11.04-9.44-23.3-16.98-36.79-22.58-8.2-3.41-16.21-5.83-23.98-7.26,5.19-.47,10.58-1.85,16.2-4.15,15.13-6.2,27.3-17.22,36.5-33.07,9.18-15.84,12.7-31.87,10.55-48.1-.81-6.01-2.29-11.41-4.46-16.16-2.27-4.95-19.98-39.01-19.95-53.88l.02-13.32c.02-11.89,12.88-19.51,23.18-13.58.07.04.15.09.22.13l11.53,6.68c12.85,7.44,33.39,39.88,36.51,44.32,2.69,7.46,4.59,15.61,5.75,24.44,1.88,14.49,1.5,28.88-1.16,43.16Z"/>
      <path class="cls-5" d="M654.98,200.84c9.98,5.79,10.42,20.05.82,26.45-6.36,4.24-11.71,7.6-11.71,7.6-12.87,7.39-51.23,8.96-56.64,9.46-7.79-1.41-15.81-3.83-24.04-7.26-13.49-5.59-25.75-13.13-36.79-22.57-13.28-11.36-24.77-25.49-34.49-42.4-9.72-16.91-16.16-33.95-19.28-51.14,13.69-4.83,26.33-11.68,37.94-20.58,7.09-5.42,13.2-11.17,18.32-17.23-2.21,4.76-3.72,10.16-4.55,16.2-2.21,16.2,1.27,32.24,10.39,48.13,9.12,15.88,21.25,26.94,36.37,33.19,5.64,2.33,11.07,3.75,16.3,4.22,5.39.51,43.71,2.22,56.56,9.66l10.82,6.27Z"/>
      <path class="cls-6" d="M534.7,281.56c-9.18,15.84-12.7,31.87-10.55,48.1.79,6.03,2.29,11.43,4.47,16.19,2.27,4.96,19.95,39.03,19.92,53.85l-.02,12.49c-.02,11.55-12.15,19.06-22.5,13.94-6.84-3.39-12.42-6.33-12.42-6.33-12.83-7.44-33.37-39.9-36.53-44.35-2.67-7.44-4.58-15.6-5.74-24.42-1.9-14.49-1.5-28.86,1.16-43.15h0c3.19-17.2,9.67-34.22,19.46-51.08,9.78-16.88,21.33-30.98,34.65-42.27,11.04,9.44,23.3,16.98,36.79,22.57,8.23,3.43,16.25,5.85,24.04,7.26-5.21.47-10.62,1.85-16.25,4.16-15.13,6.18-27.3,17.21-36.49,33.05Z"/>
    </g>
  </g>
</svg>